#N canvas 575 368 450 300 12;
#X obj 64 110 s foo;
#X obj 50 23 bng 15 250 50 0 empty empty empty 17 7 0 10 #fcfcfc #000000 #000000;
#X msg 67 64 foo!;
#X obj 110 22 bng 15 250 50 0 empty empty empty 17 7 0 10 #fcfcfc #000000 #000000;
#X msg 126 64 set bar!;
#X obj 133 116 s bar, f 9;
#X connect 1 0 2 0;
#X connect 2 0 0 0;
#X connect 3 0 4 0;
#X connect 4 0 5 0;
